<svg id="Layer_1" data-name="Layer 1" xmlns="http://www.w3.org/2000/svg" viewBox="0 0 100 100"><defs><style>.cls-1{fill:#fff;}</style></defs><rect class="cls-1" x="12.58" y="25.48" width="11.12" height="9.1" rx="3.1"/><path class="cls-1" d="M63.17,31.54H36.83a2,2,0,0,1-1.77-3l3.87-8a2,2,0,0,1,1.77-1.13H59.3a2,2,0,0,1,1.77,1.13l3.87,8A2,2,0,0,1,63.17,31.54Z"/><circle class="cls-1" cx="50" cy="54.9" r="14.25"/><path class="cls-1" d="M88.87,28H11.13A6.13,6.13,0,0,0,5,34.14V74.46a6.13,6.13,0,0,0,6.13,6.13H88.87A6.13,6.13,0,0,0,95,74.46V34.14A6.13,6.13,0,0,0,88.87,28ZM50,73.51A19.21,19.21,0,1,1,69.21,54.3,19.21,19.21,0,0,1,50,73.51ZM81.12,40.28A2.25,2.25,0,1,1,83.37,38,2.24,2.24,0,0,1,81.12,40.28Z"/></svg>