<svg id="Layer_1" data-name="Layer 1" xmlns="http://www.w3.org/2000/svg" viewBox="0 0 2291.11 1382.33"><defs><style>.cls-1{fill:#fff;}.cls-2{fill:#b3b3b3;}.cls-3{fill:gray;}.cls-4{fill:#d10000;}.cls-5{fill:#ef4714;}.cls-6{fill:#863ec6;}.cls-7{fill:#ffce00;}.cls-8{fill:#1bcc2c;}.cls-9{fill:#0067fc;}</style></defs><title>aa-logo-intro</title><path class="cls-1" d="M-.36,1.87V1384.2H2290.75V1.87Zm1163,708.77H1126.4V677.41h36.27Z" transform="translate(0.36 -1.87)"/><path class="cls-2" d="M1026.65,692.55a.18.18,0,0,0,.19-.19,3.91,3.91,0,0,1,.21-1.07,5.38,5.38,0,0,1,2.23-2.94c.61-.39,1.24-.76,1.87-1.12,1.08-.64,2.17-1.27,3.26-1.9l2.87-1.67,3.08-1.8,2.87-1.67,3.12-1.83,2.83-1.65,1.93-1.12,2.83-1.65,3.12-1.83,2.83-1.64,3.12-1.83,2.83-1.65,3.17-1.85,2.78-1.62,3.17-1.85,2.79-1.62,3.16-1.85c.93-.55,1.86-1.08,2.79-1.62l3.13-1.83,2.87-1.67,3.08-1.8,2.87-1.67,3.12-1.83,2.83-1.65,1.93-1.12,2.83-1.65,3.12-1.83,2.83-1.64,3.12-1.83,2.83-1.64,3.17-1.86,2.78-1.62,3.17-1.85,2.79-1.62,3.16-1.85,2.79-1.62,3.13-1.83c1-.55,1.91-1.1,2.86-1.67a7.1,7.1,0,0,1,1.48-.69,4.93,4.93,0,0,1,1.91-.24V637.1l-.39,0a4.81,4.81,0,0,0-1.07.12,5,5,0,0,0-1.84.8l-.09.09h0c-.06,0-.12,0-.1.11h0c-.16-.06-.28,0-.4.12l-6,3.46-6.44,3.72-7.43,4.3-7.86,4.55L1106,659l-10,5.79-.43.27v2.42c0,.23,0,.46,0,.7v52.65c0,.12,0,.23,0,.34l.36.22,2.49,1.44.82.45,0,0,2.83,1.64,2.23,1.29,2.19,1.27,2.32,1.34,2.61,1.51,2.76,1.57,2.65,1.54,2.28,1.31,2.19,1.27,2.31,1.34,2.23,1.28,2.19,1.27,2.7,1.57,2.23,1.28,2.32,1.34,2.19,1.27,2.18,1.27c.77.45,1.54.9,2.32,1.34a11.91,11.91,0,0,0,1.22.65,5.9,5.9,0,0,0,2.28.4v15.31c0,.06,0,.13,0,.19h-1.29s-.07-.07-.12-.08a7.12,7.12,0,0,1-2.12-.91c-.89-.53-1.77-1-2.66-1.55l-2.79-1.62-3.12-1.83-3.94-2.29-3.9-2.28-3.26-1.89-3.89-2.28-2.1-1.22-2.3-1.38-2.83-1.64-1.92-1.13-2.87-1.67-3.08-1.8-2.87-1.67-3.09-1.81-2.87-1.67-3.08-1.8-4-2.29-2.91-1.69c-1-.54-1.89-1.09-2.83-1.64l-3.13-1.83-2.87-1.67-3.08-1.8-2.87-1.67c-1-.6-2-1.21-3.08-1.8l-4-2.29-3.89-2.28-3.22-1.87-4-2.33-3.17-1.84-4-2.33-3.21-1.87-3.17-1.86-3.94-2.29c-1.49-.86-3-1.74-4.45-2.6a5.6,5.6,0,0,1-2.79-3.74l-.09-.54a.16.16,0,0,0-.18-.13Zm55.92-20-.85.5-4.17,2.4-4.07,2.36-4.17,2.4-4.07,2.37-4.17,2.4-4.85,2.81a7.9,7.9,0,0,0-2,1.47,5.75,5.75,0,0,0-1.08,6,5.28,5.28,0,0,0,2.14,2.65c1,.6,2,1.15,3,1.73l2.32,1.34,2.19,1.26,2.28,1.32,2.19,1.26,2.27,1.32,2.79,1.61,2.87,1.67,2.66,1.54,3,1.73,1.46.85a2.32,2.32,0,0,0,.35.12c0-13.67,0-27.28,0-40.9A.59.59,0,0,0,1082.57,672.5Z" transform="translate(0.36 -1.87)"/><path class="cls-3" d="M1145.5,637.1V621.57a2.37,2.37,0,0,1,1.12.13,5.66,5.66,0,0,1,1.51.62l8.27,4.83,10,5.82,9,5.28,10,5.82,7.88,4.6,8.79,5.13,7.89,4.6,10,5.82,7.89,4.6,10,5.83,7.88,4.6,10,5.82,5.23,3.06a5.62,5.62,0,0,1,2.32,2.57,4.11,4.11,0,0,1,.38,1.38,1,1,0,0,0,.09.27v1.39c-.12.09-.08.24-.11.36a5,5,0,0,1-2.63,3.83l-1,.58-4.32,2.52-5.15,3-5.52,3.23-6.35,3.69-6.25,3.66q-4,2.32-8,4.67L1218,723l-4.59,2.68-4.46,2.6-4.07,2.36-3.69,2.15-5.19,3-4.33,2.53-6.34,3.69-5.53,3.23-6.72,3.94-5.52,3.23-6.35,3.69-6.29,3.68-6.3,3.68a7.13,7.13,0,0,1-2.37,1s0,0-.07.06h-.7c0-.06,0-.13,0-.19V749a.83.83,0,0,1,.22-.08,6.29,6.29,0,0,0,1.48-.37,7.44,7.44,0,0,0,1.46-.81l.11-.11h0a2.78,2.78,0,0,0,.4-.16l3.52-2,5.33-3.08,4.8-2.78,5.33-3.08,4.8-2.78,4.64-2.69,4.39-2.51,6-3.45,6.06-3.5,1-.62c0-.67,0-1.33,0-2a1.06,1.06,0,0,0,0-.19c0-.17,0-.33,0-.49,0-.53,0-1.06,0-1.59V665.25a.38.38,0,0,0-.18-.33l-.22-.12-1.71-1-1.86-1-.33-.21-6-3.51-5.88-3.4-6.06-3.51-5.28-3-6.7-3.88-6-3.45-6.57-3.81a5.88,5.88,0,0,0-2-.75C1146,637.15,1145.75,637.13,1145.5,637.1ZM1208,713.43a1.53,1.53,0,0,0,.63-.28l3.52-2,8.55-4.94,7.9-4.57,6.22-3.6a5.68,5.68,0,0,0,2.87-5.53,5.51,5.51,0,0,0-1.54-3.41,6.56,6.56,0,0,0-1.49-1.14q-2.47-1.42-4.94-2.86l-8.93-5.16-9.92-5.74-2.54-1.47c-.09-.05-.19-.14-.33-.05Z" transform="translate(0.36 -1.87)"/><path class="cls-4" d="M1099.24,723.23l-.82-.45-2.49-1.44-.36-.22c0-.11,0-.22,0-.34V668.13c0-.24,0-.47,0-.7a.36.36,0,0,1,.11.1c.25.41.5.81.73,1.23.35.62.66,1.26,1,1.88.46.83.94,1.64,1.42,2.44a30.74,30.74,0,0,0,2.17,3.14c.51.67,1,1.31,1.58,2a30.69,30.69,0,0,0,2.24,2.45l1.31,1.29.25.24,1.13,1c.47.39.93.79,1.41,1.16a40.5,40.5,0,0,0,3.5,2.44c.72.43,1.42.89,2.17,1.28a48.57,48.57,0,0,0,4.6,2.21c1.5.6,3,1.15,4.58,1.6.54.15,1.08.31,1.62.44.8.2,1.6.39,2.41.57.41.09.84.15,1.26.23.07.14.14.29.22.43l7.6,13.16.31.51c-.08.1-.15.22-.23.32a55.76,55.76,0,0,1-3.92,4.07,47.48,47.48,0,0,1-6.46,5,43.12,43.12,0,0,1-20.79,6.74,40.1,40.1,0,0,1-5.8,0C1099.74,723.23,1099.49,723.24,1099.24,723.23Z" transform="translate(0.36 -1.87)"/><path class="cls-5" d="M1129.06,693.05c-.42-.08-.85-.14-1.26-.23-.81-.18-1.61-.37-2.41-.57-.54-.13-1.08-.29-1.62-.44-1.55-.45-3.08-1-4.58-1.6a48.57,48.57,0,0,1-4.6-2.21c-.75-.39-1.45-.85-2.17-1.28a40.5,40.5,0,0,1-3.5-2.44c-.48-.37-.94-.77-1.41-1.16l-1.13-1-.25-.24-1.31-1.29a30.69,30.69,0,0,1-2.24-2.45c-.53-.65-1.07-1.29-1.58-2a30.74,30.74,0,0,1-2.17-3.14c-.48-.8-1-1.61-1.42-2.44-.34-.62-.65-1.26-1-1.88-.23-.42-.48-.82-.73-1.23a.36.36,0,0,0-.11-.1V665l.43-.27,10-5.79,7.9-4.57,7.86-4.55,7.43-4.3,6.44-3.72,6-3.46c.12-.07.24-.18.4-.12,0,.22-.16.36-.27.52a38.64,38.64,0,0,0-2.08,3.43,46.12,46.12,0,0,0-2.57,5.58,44.94,44.94,0,0,0-1.42,4.49c-.25,1-.46,1.92-.64,2.9s-.32,1.92-.45,2.88c-.08.65-.15,1.31-.19,2s-.09,1.55-.1,2.33a19.12,19.12,0,0,0,.06,2.27c.07.64,0,1.29.11,1.93s.12,1.55.23,2.32c.13.94.3,1.89.47,2.83a43.56,43.56,0,0,0,1.27,5c.24.76.5,1.51.74,2.26l-.22.39q-3.27,5.64-6.52,11.28C1130,691.44,1129.51,692.24,1129.06,693.05Z" transform="translate(0.36 -1.87)"/><path class="cls-6" d="M1099.24,723.23c.25,0,.5,0,.75,0a40.1,40.1,0,0,0,5.8,0,43.12,43.12,0,0,0,20.79-6.74,47.48,47.48,0,0,0,6.46-5,55.76,55.76,0,0,0,3.92-4.07c.08-.1.15-.22.23-.32h15.57a3.38,3.38,0,0,0,.45,0,1.4,1.4,0,0,0,.28-.06c.07.16.14.33.2.5a51.64,51.64,0,0,1,1.66,6c.26,1.21.48,2.42.65,3.65.13,1,.22,1.93.29,2.9.07.82.09,1.65.1,2.47a17.15,17.15,0,0,1-.05,2c-.06.69,0,1.39-.11,2.08-.07.47-.06,1-.13,1.43-.14,1-.3,1.95-.47,2.93a40.9,40.9,0,0,1-1.39,5.41,47.12,47.12,0,0,1-1.87,4.74,43.42,43.42,0,0,1-2.11,4c-.44.73-.91,1.45-1.36,2.18a2,2,0,0,0-.13.31h0l-.11.11a7.44,7.44,0,0,1-1.46.81,6.29,6.29,0,0,1-1.48.37.83.83,0,0,0-.22.08,5.9,5.9,0,0,1-2.28-.4A11.91,11.91,0,0,1,1142,748c-.78-.44-1.55-.89-2.32-1.34l-2.18-1.27-2.19-1.27-2.32-1.34-2.23-1.28-2.7-1.57-2.19-1.27-2.23-1.28-2.31-1.34-2.19-1.27-2.28-1.31-2.65-1.54-2.76-1.57-2.61-1.51-2.32-1.34-2.19-1.27-2.23-1.29-2.83-1.64Z" transform="translate(0.36 -1.87)"/><path class="cls-7" d="M1137.18,679c-.25-.75-.51-1.5-.75-2.26a43.56,43.56,0,0,1-1.27-5c-.17-.94-.34-1.89-.47-2.83-.11-.77-.13-1.55-.23-2.32s0-1.29-.11-1.93a19.12,19.12,0,0,1-.06-2.27c0-.78,0-1.56.1-2.33s.11-1.32.19-2c.13-1,.26-1.93.45-2.88s.39-1.94.64-2.9a44.94,44.94,0,0,1,1.42-4.49,46.12,46.12,0,0,1,2.57-5.58,38.64,38.64,0,0,1,2.08-3.43c.11-.16.27-.3.27-.52h0l.1-.11h0l.09-.09a5,5,0,0,1,1.84-.8,4.81,4.81,0,0,1,1.07-.12l.39,0c.25,0,.5,0,.74.09a5.88,5.88,0,0,1,2,.75l6.57,3.81,6,3.45,6.7,3.88,5.28,3,6.06,3.51,5.88,3.4,6,3.51.33.21h-.4c-.56,0-1.12-.08-1.68-.09-1.27,0-2.54,0-3.82.05-1,.06-2,.14-3,.26a41.59,41.59,0,0,0-4.82.86,43,43,0,0,0-13.21,5.6,47.3,47.3,0,0,0-9.37,7.91c-.48.52-.93,1.08-1.39,1.61Z" transform="translate(0.36 -1.87)"/><path class="cls-5" d="M1142.11,638.13l-.1.11C1142,638.15,1142.05,638.13,1142.11,638.13Z" transform="translate(0.36 -1.87)"/><path class="cls-8" d="M1153.41,679c.46-.53.91-1.09,1.39-1.61a47.3,47.3,0,0,1,9.37-7.91,43,43,0,0,1,13.21-5.6,41.59,41.59,0,0,1,4.82-.86c1-.12,2-.2,3-.26,1.28-.07,2.55-.07,3.82-.05.56,0,1.12.06,1.68.09h.4l1.86,1,1.71,1,.22.12a.38.38,0,0,1,.18.33v51.46c0,.53,0,1.06,0,1.59,0,.16,0,.32,0,.49-.1-.2-.19-.39-.28-.59a45.19,45.19,0,0,0-4.29-7.41,43,43,0,0,0-7.87-8.41,43.68,43.68,0,0,0-11-6.51,47.56,47.56,0,0,0-10.07-2.9c-.08-.14-.18-.28-.26-.42l-4.75-8.23Z" transform="translate(0.36 -1.87)"/><path class="cls-9" d="M1161.51,693a47.56,47.56,0,0,1,10.07,2.9,43.68,43.68,0,0,1,11,6.51,43,43,0,0,1,7.87,8.41,45.19,45.19,0,0,1,4.29,7.41c.09.2.18.39.28.59a1.06,1.06,0,0,1,0,.19c0,.66,0,1.32,0,2l-1,.62-6.06,3.5-6,3.45-4.39,2.51-4.64,2.69-4.8,2.78-5.33,3.08-4.8,2.78-5.33,3.08-3.52,2a2.78,2.78,0,0,1-.4.16,2,2,0,0,1,.13-.31c.45-.73.92-1.45,1.36-2.18a43.42,43.42,0,0,0,2.11-4,47.12,47.12,0,0,0,1.87-4.74,40.9,40.9,0,0,0,1.39-5.41c.17-1,.33-1.95.47-2.93.07-.47.06-1,.13-1.43.09-.69,0-1.39.11-2.08a17.15,17.15,0,0,0,.05-2c0-.82,0-1.65-.1-2.47-.07-1-.16-1.94-.29-2.9-.17-1.23-.39-2.44-.65-3.65a51.64,51.64,0,0,0-1.66-6c-.06-.17-.13-.34-.2-.5a3,3,0,0,1,.2-.4l2.47-4.29,5.15-8.92A.89.89,0,0,0,1161.51,693Z" transform="translate(0.36 -1.87)"/></svg>