<svg id="Layer_1" data-name="Layer 1" xmlns="http://www.w3.org/2000/svg" viewBox="0 0 100 100"><defs><style>.cls-1{fill:#fff;}</style></defs><path class="cls-1" d="M74.93,18.5H25.07A6.07,6.07,0,0,0,19,24.57V56.5H81V24.57A6.07,6.07,0,0,0,74.93,18.5Zm1.71,34H23.36V27.42a4.77,4.77,0,0,1,4.78-4.77H71.86a4.77,4.77,0,0,1,4.78,4.77Z"/><path class="cls-1" d="M95.21,75.19,81,56.5H19L4.79,75.19A3.93,3.93,0,0,0,7.92,81.5H92.08A3.93,3.93,0,0,0,95.21,75.19ZM22.4,57.69H76.87l1.46,1.92H20.93Zm-2.2,2.88H79.06l2,2.65H18.19ZM36,75.5l4.38-7H59.63l4.37,7ZM15.26,67.07l2.2-2.88H81.81L84,67.07Z"/></svg>