<?xml version="1.0" encoding="utf-8"?>
<!-- Generator: Adobe Illustrator 23.0.6, SVG Export Plug-In . SVG Version: 6.00 Build 0)  -->
<svg version="1.1" id="Layer_1" xmlns="http://www.w3.org/2000/svg" xmlns:xlink="http://www.w3.org/1999/xlink" x="0px" y="0px"
	 viewBox="0 0 2291.8 1383.1" style="enable-background:new 0 0 2291.8 1383.1;" xml:space="preserve">
<style type="text/css">
	.st0{fill:#B3B3B3;}
	.st1{fill:#808080;}
	.st2{fill:#D10000;}
	.st3{fill:#EF4714;}
	.st4{fill:#863EC6;}
	.st5{fill:#FFCE00;}
	.st6{fill:#1BCC2C;}
	.st7{fill:#0067FC;}
</style>
<g>
	<path class="st0" d="M0.8,688.2c1.2,0,1.7-0.7,1.8-1.8c0.1-3.6,1-7,2.1-10.3c4-11.9,10.9-21.7,21.5-28.5c5.9-3.8,12-7.3,18.1-10.9
		c10.5-6.1,21-12.2,31.5-18.3c9.3-5.4,18.5-10.8,27.8-16.2c9.9-5.8,19.9-11.6,29.8-17.4c9.2-5.4,18.5-10.8,27.8-16.2
		c10.1-5.9,20.1-11.8,30.2-17.7c9.1-5.3,18.2-10.6,27.4-15.9c6.2-3.6,12.4-7.3,18.6-10.9c9.1-5.3,18.2-10.6,27.3-15.9
		c10.1-5.9,20.1-11.8,30.2-17.7c9.1-5.3,18.2-10.6,27.3-15.9c10.1-5.9,20.1-11.8,30.2-17.7c9.1-5.3,18.2-10.6,27.3-15.9
		c10.2-6,20.4-12,30.6-17.9c9-5.2,18-10.4,26.9-15.7c10.2-6,20.4-12,30.6-17.9c9-5.2,18-10.4,26.9-15.7c10.2-6,20.4-12,30.6-17.9
		c9-5.2,18-10.4,26.9-15.7c10.1-5.9,20.1-11.8,30.2-17.6c9.2-5.4,18.5-10.8,27.8-16.2c9.9-5.8,19.9-11.6,29.8-17.4
		c9.2-5.4,18.5-10.8,27.8-16.2c10.1-5.9,20.1-11.8,30.2-17.7c9.1-5.3,18.2-10.6,27.4-15.9c6.2-3.6,12.4-7.3,18.6-10.9
		c9.1-5.3,18.2-10.6,27.3-15.9c10.1-5.9,20.1-11.8,30.2-17.7c9.1-5.3,18.2-10.6,27.3-15.9c10.1-5.9,20.1-11.8,30.2-17.7
		c9.1-5.3,18.2-10.6,27.3-15.9c10.2-6,20.4-12,30.6-17.9c9-5.2,18-10.4,26.9-15.7c10.2-6,20.4-12,30.6-17.9c9-5.2,18-10.4,26.9-15.7
		c10.2-6,20.4-12,30.6-17.9c9-5.2,18-10.4,26.9-15.7c10.1-5.9,20.1-11.8,30.2-17.6c9.2-5.4,18.5-10.7,27.7-16.2
		c4.6-2.7,9.2-5.1,14.3-6.7c6-1.8,12.1-2.9,18.4-2.3c0,42.9,0,85.8,0,128.6c0,7.2,0,14.4,0,21.6c-1.3,0.1-2.5,0.3-3.8,0.2
		c-3.5,0-7,0.4-10.4,1.2c-6.4,1.5-12.5,3.7-17.8,7.7c-0.3,0.3-0.6,0.6-0.9,0.9c0,0,0.1-0.1,0.1-0.1c-0.7,0-1.2,0.2-1,1l0-0.1
		c-1.6-0.6-2.7,0.5-3.9,1.2c-19.3,11.1-38.5,22.2-57.7,33.4c-20.8,12-41.5,24.1-62.3,36.1c-23.9,13.9-47.9,27.7-71.9,41.5
		c-25.3,14.7-50.6,29.3-76,44c-25.5,14.7-50.9,29.4-76.4,44.2c-32.3,18.7-64.5,37.3-96.7,56c-1.5,0.9-2.9,1.8-4.2,2.7
		c0,8.1,0,15.7,0,23.4c-0.1,2.2-0.2,4.5-0.2,6.7c0,168.4,0,336.9,0,505.3c0,1.3,0,2.6,0,3.8c0,1.1,0.1,2.2,0.2,3.2
		c1.3,0.8,2.3,1.5,3.4,2.1c8,4.7,16,9.3,24.1,13.9c2.6,1.5,5.3,2.9,8,4.4c0.1,0.1,0.2,0.3,0.3,0.4c9.1,5.3,18.2,10.6,27.3,15.8
		c7.2,4.2,14.4,8.3,21.6,12.5c7,4.1,14.1,8.2,21.1,12.3c7.5,4.3,14.9,8.6,22.4,13c8.4,4.9,16.8,9.8,25.3,14.7
		c8.9,5.1,17.8,10.1,26.6,15.2c8.6,4.9,17.1,9.9,25.7,14.9c7.3,4.2,14.7,8.5,22,12.7c7.1,4.1,14.1,8.2,21.1,12.2
		c7.5,4.3,14.9,8.6,22.4,13c7.2,4.1,14.4,8.3,21.6,12.4c7.1,4.1,14.1,8.2,21.1,12.2c8.7,5.1,17.4,10.1,26.1,15.2
		c7.2,4.2,14.4,8.3,21.6,12.4c7.5,4.3,14.9,8.6,22.4,13c7,4.1,14.1,8.2,21.1,12.2c7,4.1,14.1,8.2,21.1,12.3
		c7.5,4.3,14.9,8.7,22.4,12.9c3.9,2.2,7.7,4.6,11.8,6.3c7,2.9,14.4,4,22,3.9c0,49.3,0,98.7,0,148c0,0.6,0,1.3-0.1,1.9
		c-4.2,0-8.3,0-12.5,0c-0.4-0.3-0.7-0.7-1.1-0.8c-7.5-1.5-14.1-5-20.6-8.8c-8.5-5.1-17.1-10-25.7-15c-9-5.2-18-10.4-26.9-15.7
		c-10.1-5.9-20.1-11.8-30.2-17.7c-12.7-7.4-25.5-14.7-38.2-22.1c-12.6-7.3-25.1-14.7-37.6-22c-10.5-6.1-21-12.2-31.5-18.3
		c-12.6-7.3-25.1-14.7-37.6-22c-6.8-4-13.6-7.8-20.3-11.8c-7.4-4.4-14.8-8.9-22.2-13.3c-9.1-5.3-18.2-10.6-27.3-15.9
		c-6.2-3.6-12.4-7.3-18.6-10.9c-9.2-5.4-18.5-10.8-27.8-16.2c-9.9-5.8-19.9-11.6-29.8-17.4c-9.2-5.4-18.5-10.8-27.8-16.2
		c-9.9-5.8-19.9-11.6-29.8-17.4c-9.2-5.4-18.5-10.8-27.8-16.2c-9.9-5.8-19.9-11.6-29.8-17.4c-12.7-7.4-25.4-14.8-38.2-22.1
		c-9.4-5.4-18.8-10.9-28.2-16.3c-9.1-5.3-18.2-10.6-27.4-15.9c-10.1-5.9-20.1-11.8-30.2-17.7c-9.2-5.4-18.5-10.8-27.8-16.2
		c-9.9-5.8-19.9-11.6-29.8-17.4c-9.2-5.4-18.5-10.8-27.8-16.2c-9.9-5.8-19.9-11.6-29.8-17.4c-12.7-7.4-25.4-14.7-38.2-22.1
		c-12.6-7.3-25.1-14.7-37.7-22c-10.4-6-20.7-12-31.1-18.1c-12.8-7.5-25.6-15-38.5-22.5c-10.2-6-20.5-11.9-30.7-17.8
		c-12.8-7.5-25.6-15-38.5-22.5c-10.4-6-20.7-12-31.1-18.1c-10.2-6-20.4-12-30.6-18C98.8,781.3,86,774,73.3,766.6
		c-14.4-8.4-28.7-16.8-43-25.2c-14.1-8.2-23.4-20.1-26.9-36.2c-0.4-1.7-0.6-3.5-0.9-5.2c-0.2-0.9-0.8-1.3-1.7-1.3
		C0.8,695.2,0.8,691.7,0.8,688.2z M541.5,494.3c-3.1,1.8-5.7,3.3-8.3,4.9c-13.4,7.7-26.9,15.4-40.3,23.2
		c-13.1,7.6-26.2,15.3-39.4,22.9c-13.4,7.8-26.9,15.4-40.3,23.2c-13.1,7.6-26.2,15.3-39.4,22.9c-13.4,7.8-26.9,15.4-40.3,23.2
		c-15.6,9-31.2,18.2-46.9,27.2c-7,4-13.6,8.3-19.2,14.2c-8.5,9.2-12.9,20.1-14.1,32.3c-0.9,8.7,0.4,17.2,3.7,25.4
		c4.2,10.7,11,19.5,20.8,25.6c9.4,5.8,19,11.2,28.5,16.7c7.5,4.3,14.9,8.6,22.4,13c7.1,4.1,14.1,8.2,21.2,12.2
		c7.3,4.2,14.7,8.5,22,12.7c7.1,4.1,14.1,8.2,21.2,12.2c7.3,4.2,14.7,8.5,22,12.7c9,5.2,18,10.4,27,15.6
		c9.3,5.4,18.5,10.7,27.8,16.1c8.6,5,17.1,10,25.7,14.9c9.7,5.6,19.4,11.2,29.1,16.8c4.7,2.7,9.4,5.5,14.1,8.2
		c0.9,0.5,2,0.7,3.4,1.2c0-132.1,0-263.8,0-395.4C542.1,495.7,541.8,495.3,541.5,494.3z"/>
	<path class="st1" d="M1150,152.1c0-7.2,0-14.4,0-21.6c0-42.9,0-85.8,0-128.6c3.8-0.8,7.3,0.4,10.8,1.3c5.1,1.3,10,3.3,14.6,6
		c26.6,15.6,53.3,31.1,80,46.7c32.2,18.8,64.4,37.5,96.6,56.3c29.2,17,58.3,34,87.4,51c32.2,18.8,64.4,37.5,96.6,56.3
		c25.4,14.8,50.8,29.7,76.3,44.5c28.3,16.5,56.6,33,85,49.5c25.4,14.8,50.8,29.7,76.3,44.5c32.2,18.8,64.4,37.5,96.6,56.3
		c25.4,14.8,50.8,29.7,76.3,44.5c32.2,18.8,64.4,37.5,96.6,56.3c25.4,14.8,50.8,29.7,76.3,44.5c32.2,18.8,64.4,37.5,96.6,56.3
		c16.9,9.8,33.7,19.6,50.5,29.5c10.1,5.9,17.6,14.2,22.4,24.9c1.9,4.3,3.4,8.6,3.7,13.3c0.1,0.9,0.6,1.7,0.9,2.6c0,4.5,0,9,0,13.4
		c-1.2,0.9-0.8,2.3-1.1,3.5c-0.4,2.3-0.7,4.8-1.4,7c-4.3,12.9-12.2,23-24,30c-3.2,1.9-6.4,3.7-9.5,5.6
		c-13.9,8.1-27.9,16.3-41.8,24.4c-16.6,9.7-33.2,19.3-49.8,29c-17.8,10.4-35.6,20.8-53.4,31.2c-20.4,11.9-40.9,23.8-61.4,35.7
		c-20.2,11.8-40.3,23.6-60.5,35.3c-25.8,15.1-51.7,30.1-77.5,45.2c-20.6,12-41.1,24-61.7,36.1c-14.8,8.6-29.5,17.3-44.3,25.9
		c-14.4,8.4-28.8,16.7-43.1,25.1c-13.1,7.6-26.3,15.2-39.4,22.9c-11.9,6.9-23.8,13.8-35.7,20.8c-16.7,9.7-33.5,19.5-50.2,29.2
		c-14,8.1-27.9,16.3-41.8,24.5c-20.4,11.9-40.9,23.8-61.4,35.7c-17.8,10.4-35.6,20.8-53.4,31.2c-21.7,12.7-43.3,25.4-65,38.1
		c-17.8,10.4-35.6,20.8-53.4,31.2c-20.4,11.9-40.9,23.8-61.4,35.7c-20.3,11.8-40.6,23.7-60.9,35.6c-20.3,11.9-40.6,23.7-60.9,35.6
		c-7.2,4.2-14.6,8-22.9,9.5c-0.3,0-0.5,0.4-0.7,0.6c-2.2,0-4.5,0-6.7,0c0-0.6,0.1-1.3,0.1-1.9c0-49.3,0-98.7,0-148
		c0.7-0.3,1.4-0.7,2.1-0.8c4.9-0.9,9.8-1.5,14.3-3.5c4.9-2.2,9.8-4.6,14.2-7.8c0.4-0.4,0.7-0.7,1.1-1.1l0,0.1
		c1.3-0.5,2.7-0.9,3.9-1.6c11.4-6.5,22.7-13.1,34.1-19.7c17.2-9.9,34.3-19.9,51.5-29.8c15.5-9,31-17.9,46.5-26.9
		c17.2-9.9,34.3-19.8,51.5-29.8c15.5-9,31-17.9,46.5-26.9c14.9-8.6,29.9-17.3,44.8-25.9c14.1-8.1,28.3-16.1,42.4-24.3
		c19.2-11.1,38.4-22.3,57.7-33.4c19.5-11.3,39-22.5,58.5-33.8c3.3-1.9,6.6-3.9,9.9-5.9c0-6.5,0-12.9,0-19.3c0-0.6-0.3-1.2-0.5-1.9
		c0.2-1.6,0.5-3.1,0.5-4.7c0.1-5.1,0-10.2,0-15.4c0-164.3,0-328.5,0-492.8c0-1.6,0-3.2,0-4.8c0-1.4-0.6-2.4-1.8-3.2
		c-0.7-0.4-1.4-0.8-2.1-1.2c-5.5-3.2-11-6.5-16.6-9.6c-6-3.4-12-6.7-18-10.1c-1.1-0.7-2.1-1.5-3.2-2.1c-19.5-11.3-39-22.6-58.5-33.9
		c-19-11-37.9-21.9-56.9-32.9c-19.5-11.3-39-22.6-58.6-33.9c-17-9.9-34-19.7-51.1-29.6c-21.6-12.5-43.2-25-64.8-37.5
		c-19.2-11.1-38.5-22.3-57.7-33.4c-21.2-12.3-42.4-24.5-63.5-36.8c-6-3.5-12.3-6.1-19.2-7.3C1154.8,152.5,1152.4,152.4,1150,152.1z
		 M1754,890.1c2.7-0.4,4.3-1.7,6.1-2.7c11.4-6.5,22.7-13.1,34-19.7c27.5-15.9,55.1-31.9,82.6-47.8c25.5-14.7,50.9-29.5,76.4-44.2
		c20.1-11.6,40.1-23.2,60.2-34.8c4.3-2.5,8.4-5.3,11.8-8.9c12-12.4,17.4-27.3,15.9-44.5c-1.1-12.7-6.1-23.7-14.9-33
		c-4.2-4.4-9.1-8-14.4-11c-15.9-9.2-31.8-18.4-47.8-27.6c-28.8-16.7-57.6-33.3-86.4-50c-32-18.5-63.9-37-95.9-55.5
		c-8.2-4.7-16.3-9.4-24.5-14.2c-0.9-0.5-1.8-1.4-3.2-0.5C1754,626.9,1754,758.2,1754,890.1z"/>
	<path class="st2" d="M702.7,984.9c-2.7-1.5-5.3-2.9-8-4.4c-8-4.6-16.1-9.3-24.1-13.9c-1.1-0.6-2.2-1.3-3.4-2.1
		c-0.1-1.1-0.2-2.2-0.2-3.2c0-1.3,0-2.6,0-3.8c0-168.4,0-336.9,0-505.3c0-2.2,0.1-4.5,0.2-6.7c0.4,0.3,0.9,0.5,1.1,0.9
		c2.4,4,4.9,7.9,7.1,11.9c3.3,6,6.3,12.2,9.7,18.2c4.4,7.9,9.1,15.8,13.7,23.6c6.3,10.6,13.5,20.6,20.9,30.3
		c4.9,6.5,10.2,12.7,15.3,19c6.7,8.3,14.1,16.1,21.7,23.6c4.2,4.2,8.4,8.3,12.6,12.5c0.8,0.8,1.6,1.6,2.4,2.3
		c3.6,3.1,7.3,6.2,11,9.3c4.5,3.8,8.9,7.7,13.6,11.3c10.9,8.3,22,16.4,33.8,23.5c7,4.2,13.8,8.6,21,12.4
		c14.6,7.7,29.2,15.2,44.5,21.3c14.5,5.8,29.2,11.1,44.3,15.5c5.2,1.5,10.4,3,15.7,4.3c7.7,1.9,15.5,3.7,23.2,5.5
		c4,0.9,8.1,1.5,12.2,2.2c0.7,1.4,1.4,2.9,2.2,4.2c24.5,42.4,48.9,84.8,73.4,127.2c1,1.7,2,3.3,3,4.9c-0.7,1-1.4,2.1-2.2,3.1
		c-12,13.8-24.5,27-37.9,39.3c-19.4,17.9-40.2,34.2-62.4,48.5c-25.9,16.6-53.4,30.2-82.3,40.8c-38.4,14-78,22.1-118.8,24.5
		c-18.7,1.1-37.4,1.1-56.1-0.4C707.5,984.9,705.1,985,702.7,984.9z"/>
	<path class="st3" d="M991,693c-4.1-0.7-8.2-1.3-12.2-2.2c-7.8-1.7-15.5-3.5-23.2-5.5c-5.3-1.3-10.5-2.8-15.7-4.3
		c-15-4.4-29.8-9.6-44.3-15.5c-15.3-6.2-30-13.6-44.5-21.3c-7.2-3.8-14-8.2-21-12.4c-11.8-7.1-22.8-15.2-33.8-23.5
		c-4.7-3.6-9.1-7.5-13.6-11.3c-3.7-3.1-7.3-6.2-11-9.3c-0.9-0.7-1.6-1.5-2.4-2.3c-4.2-4.2-8.4-8.4-12.6-12.5
		c-7.6-7.5-15-15.3-21.7-23.6c-5.1-6.3-10.4-12.5-15.3-19c-7.5-9.8-14.6-19.7-20.9-30.3c-4.7-7.8-9.3-15.7-13.7-23.6
		c-3.4-6-6.3-12.2-9.7-18.2c-2.2-4.1-4.7-8-7.1-11.9c-0.2-0.4-0.7-0.6-1.1-0.9c0-7.7,0-15.3,0-23.4c1.3-0.8,2.7-1.8,4.2-2.7
		c32.2-18.7,64.5-37.3,96.7-56c25.5-14.7,51-29.4,76.4-44.2c25.3-14.7,50.6-29.3,76-44c23.9-13.9,47.9-27.7,71.9-41.5
		c20.8-12,41.5-24,62.3-36.1c19.2-11.1,38.5-22.3,57.7-33.4c1.2-0.7,2.3-1.8,3.9-1.2c0,2.1-1.6,3.4-2.6,5
		c-7.3,10.7-14,21.8-20.1,33.2c-9.3,17.5-17.9,35.3-24.8,54c-5.3,14.2-10,28.7-13.8,43.4c-2.4,9.3-4.4,18.6-6.2,28
		c-1.8,9.3-3,18.6-4.3,27.9c-0.9,6.3-1.4,12.7-1.9,19c-0.5,7.5-0.9,15-1,22.5c-0.1,7.3-0.3,14.7,0.5,22c0.7,6.2,0.2,12.4,1,18.6
		c1,7.4,1.2,15,2.3,22.4c1.3,9.2,2.9,18.3,4.6,27.4c3.1,16.5,7.2,32.7,12.3,48.7c2.3,7.3,4.8,14.6,7.2,21.9
		c-0.7,1.2-1.5,2.5-2.2,3.7c-21,36.4-42,72.7-63,109.1C999.8,677.5,995.4,685.3,991,693z"/>
	<path class="st4" d="M702.7,984.9c2.4,0.1,4.8,0,7.2,0.2c18.7,1.5,37.4,1.5,56.1,0.4c40.7-2.4,80.4-10.5,118.8-24.5
		c28.9-10.6,56.4-24.1,82.3-40.8c22.3-14.3,43-30.5,62.4-48.5c13.4-12.4,25.9-25.6,37.9-39.3c0.8-1,1.5-2.1,2.2-3.1
		c1.3,0,2.6-0.1,3.8-0.1c48.9,0,97.8,0,146.7,0c1.4,0,2.9,0.1,4.3,0c0.9-0.1,1.8-0.4,2.7-0.7c0.7,1.6,1.4,3.2,1.9,4.9
		c6.5,18.9,11.9,38.1,16.1,57.6c2.5,11.7,4.6,23.5,6.2,35.3c1.2,9.3,2.2,18.7,2.9,28.1c0.6,8,0.9,15.9,1,23.9
		c0.1,6.5,0.1,13.1-0.5,19.6c-0.6,6.7-0.2,13.4-1.1,20.1c-0.6,4.6-0.6,9.2-1.3,13.8c-1.4,9.5-2.9,18.9-4.5,28.3
		c-3.2,17.8-7.8,35.2-13.4,52.3c-5.1,15.6-11.3,30.9-18.1,45.9c-6.1,13.2-12.9,26.1-20.3,38.5c-4.3,7.1-8.8,14.1-13.2,21.2
		c-0.6,0.9-0.9,2-1.3,3l0-0.1c-0.4,0.4-0.7,0.7-1.1,1.1c-4.4,3.2-9.2,5.7-14.2,7.8c-4.5,2-9.5,2.7-14.3,3.5
		c-0.7,0.1-1.4,0.5-2.1,0.8c-7.6,0.1-15-1-22-3.9c-4.1-1.7-7.9-4.1-11.8-6.3c-7.5-4.3-14.9-8.6-22.4-12.9c-7-4.1-14.1-8.2-21.1-12.3
		c-7-4.1-14.1-8.2-21.1-12.2c-7.5-4.3-14.9-8.6-22.4-13c-7.2-4.1-14.4-8.3-21.6-12.4c-8.7-5-17.4-10.1-26.1-15.2
		c-7-4.1-14.1-8.2-21.1-12.2c-7.2-4.1-14.4-8.3-21.6-12.4c-7.5-4.3-14.9-8.6-22.4-13c-7-4.1-14.1-8.2-21.1-12.2
		c-7.3-4.2-14.7-8.5-22-12.7c-8.6-5-17.1-10-25.7-14.9c-8.9-5.1-17.8-10.1-26.6-15.2c-8.4-4.9-16.9-9.8-25.3-14.7
		c-7.5-4.3-14.9-8.6-22.4-13c-7-4.1-14.1-8.2-21.1-12.3c-7.2-4.2-14.4-8.3-21.6-12.5c-9.1-5.3-18.2-10.6-27.3-15.8
		C702.8,985.2,702.8,985,702.7,984.9z"/>
	<path class="st5" d="M1069.5,557c-2.4-7.3-4.9-14.5-7.2-21.9c-5-16-9.2-32.2-12.3-48.7c-1.7-9.1-3.3-18.2-4.6-27.4
		c-1-7.4-1.3-14.9-2.3-22.4c-0.8-6.2-0.4-12.5-1-18.6c-0.8-7.4-0.6-14.7-0.5-22c0.1-7.5,0.5-15,1-22.5c0.4-6.4,1-12.7,1.9-19
		c1.3-9.3,2.5-18.6,4.3-27.9c1.8-9.4,3.8-18.8,6.2-28c3.8-14.7,8.5-29.1,13.8-43.4c6.9-18.6,15.5-36.5,24.8-54
		c6.1-11.4,12.9-22.5,20.1-33.2c1-1.5,2.7-2.9,2.6-5c0,0,0,0.1,0,0.1c0.3-0.3,0.7-0.7,1-1c0,0-0.1,0.1-0.1,0.1
		c0.3-0.3,0.6-0.6,0.9-0.9c5.3-4,11.4-6.2,17.8-7.7c3.4-0.8,6.9-1.2,10.4-1.2c1.3,0,2.5-0.2,3.8-0.2c2.4,0.3,4.8,0.4,7.1,0.8
		c6.9,1.2,13.1,3.8,19.2,7.3c21.1,12.3,42.3,24.5,63.5,36.8c19.2,11.1,38.5,22.3,57.7,33.4c21.6,12.5,43.2,25,64.8,37.5
		c17,9.8,34,19.7,51.1,29.6c19.5,11.3,39,22.6,58.6,33.9c19,11,37.9,21.9,56.9,32.9c19.5,11.3,39,22.6,58.5,33.9
		c1.1,0.6,2.1,1.4,3.2,2.1c-1.3,0-2.6,0.1-3.8,0c-5.4-0.3-10.8-0.7-16.3-0.8c-12.3-0.2-24.6-0.3-36.9,0.5
		c-9.6,0.6-19.1,1.3-28.6,2.4c-15.7,1.9-31.2,4.7-46.6,8.3c-45.7,10.8-88.2,29-127.8,54.2c-33.6,21.4-63.6,47.2-90.6,76.5
		c-4.7,5-9,10.4-13.5,15.6C1174.1,557,1121.8,557,1069.5,557z"/>
	<path class="st3" d="M1117.2,162c-0.3,0.3-0.7,0.7-1,1C1116,162.2,1116.6,162.1,1117.2,162z"/>
	<path class="st6" d="M1226.4,556.9c4.5-5.2,8.8-10.5,13.5-15.6c27-29.3,56.9-55.1,90.6-76.5c39.6-25.2,82.1-43.3,127.8-54.2
		c15.4-3.7,30.9-6.4,46.6-8.3c9.5-1.2,19.1-1.9,28.6-2.4c12.3-0.7,24.6-0.7,36.9-0.5c5.4,0.1,10.8,0.5,16.3,0.8c1.3,0.1,2.6,0,3.8,0
		c6,3.3,12,6.7,18,10.1c5.6,3.2,11.1,6.4,16.6,9.6c0.7,0.4,1.4,0.8,2.1,1.2c1.2,0.7,1.8,1.7,1.8,3.2c0,1.6,0,3.2,0,4.8
		c0,164.3,0,328.5,0,492.8c0,5.1,0,10.2,0,15.4c0,1.6-0.3,3.1-0.5,4.7c-0.9-1.9-1.8-3.8-2.6-5.6c-11.7-25.1-25.4-49.1-41.5-71.7
		c-21.8-30.5-47.1-57.7-76.1-81.3c-32.2-26.2-67.6-47.1-106-62.9c-31.4-12.9-63.9-22.3-97.4-28.1c-0.8-1.4-1.7-2.7-2.5-4.1
		c-15.3-26.5-30.6-53-45.9-79.5C1246.4,591.4,1236.4,574.2,1226.4,556.9z"/>
	<path class="st7" d="M1304.8,692.3c33.5,5.7,65.9,15.2,97.4,28.1c38.4,15.8,73.8,36.7,106,62.9c29,23.7,54.3,50.8,76.1,81.3
		c16.1,22.6,29.8,46.5,41.5,71.7c0.9,1.9,1.8,3.8,2.6,5.6c0.2,0.6,0.5,1.2,0.5,1.9c0,6.4,0,12.8,0,19.3c-3.4,2-6.6,4-9.9,5.9
		c-19.5,11.3-39,22.5-58.5,33.8c-19.2,11.1-38.4,22.3-57.7,33.4c-14.1,8.1-28.3,16.2-42.4,24.3c-15,8.6-29.9,17.3-44.8,25.9
		c-15.5,9-31,17.9-46.5,26.9c-17.2,9.9-34.3,19.8-51.5,29.8c-15.5,9-31,17.9-46.5,26.9c-17.2,9.9-34.3,19.9-51.5,29.8
		c-11.3,6.6-22.7,13.1-34.1,19.7c-1.2,0.7-2.6,1.1-3.9,1.6c0.4-1,0.7-2.1,1.3-3c4.4-7.1,8.9-14,13.2-21.2
		c7.5-12.5,14.3-25.3,20.3-38.5c6.9-15,13-30.2,18.1-45.9c5.6-17.2,10.3-34.6,13.4-52.3c1.7-9.4,3.2-18.9,4.5-28.3
		c0.7-4.6,0.7-9.2,1.3-13.8c0.9-6.7,0.5-13.4,1.1-20.1c0.6-6.6,0.6-13.1,0.5-19.6c-0.1-8-0.4-16-1-23.9c-0.7-9.4-1.6-18.7-2.9-28.1
		c-1.6-11.8-3.7-23.6-6.2-35.3c-4.2-19.5-9.6-38.7-16.1-57.6c-0.6-1.7-1.3-3.3-1.9-4.9c0.6-1.3,1.2-2.6,1.9-3.8
		c8-13.8,15.9-27.6,23.9-41.5c16.6-28.7,33.2-57.5,49.8-86.2C1303.7,695.6,1304.8,694.2,1304.8,692.3z"/>
</g>
</svg>
