<svg id="Layer_1" data-name="Layer 1" xmlns="http://www.w3.org/2000/svg" viewBox="0 0 100 100"><defs><style>.cls-1{fill:#fff;}</style></defs><rect class="cls-1" x="4.54" y="47.9" width="66.52" height="38.15" rx="6.13"/><path class="cls-1" d="M89.33,47.71,73.09,58.39v16L89.33,85.1c2.48,1.63,6.13.17,6.13-2.45V50.16C95.46,47.55,91.81,46.08,89.33,47.71Z"/><path class="cls-1" d="M49.9,14A16.18,16.18,0,1,0,66.08,30.13,16.18,16.18,0,0,0,49.9,14Zm0,27.81A11.63,11.63,0,1,1,61.54,30.13,11.63,11.63,0,0,1,49.9,41.76Z"/><path class="cls-1" d="M20,21.22A12.73,12.73,0,1,0,32.72,34,12.73,12.73,0,0,0,20,21.22Zm-.3,21.29a8.37,8.37,0,1,1,8.37-8.37A8.37,8.37,0,0,1,19.69,42.51Z"/></svg>